<?xml version="1.0" standalone="no"?>
<!DOCTYPE svg PUBLIC "-//W3C//DTD SVG 20010904//EN"
 "http://www.w3.org/TR/2001/REC-SVG-20010904/DTD/svg10.dtd">
<svg version="1.0" xmlns="http://www.w3.org/2000/svg"
 width="431.000000pt" height="431.000000pt" viewBox="0 0 431.000000 431.000000"
 preserveAspectRatio="xMidYMid meet">
<metadata>
Created by potrace 1.14, written by Peter Selinger 2001-2017
</metadata>
<g transform="translate(0.000000,431.000000) scale(0.100000,-0.100000)"
fill="#000000" stroke="none">
<path d="M1980 4227 c-3 -3 -36 -7 -75 -10 -38 -4 -95 -11 -125 -17 -30 -6
-71 -13 -90 -16 -68 -11 -272 -74 -373 -115 -479 -196 -876 -559 -1101 -1006
-158 -314 -221 -598 -212 -953 5 -201 7 -217 37 -365 153 -745 736 -1361 1496
-1579 209 -60 313 -75 566 -83 663 -20 1282 252 1722 758 250 288 423 683 474
1079 14 110 10 389 -6 509 -60 435 -263 839 -583 1162 -323 325 -745 540
-1209 615 -88 14 -510 31 -521 21z"/>
</g>
</svg>
